<?xml version="1.0" encoding="UTF-8" standalone="no"?>
<svg
   width="131"
   height="42"
   viewBox="0 0 131 42"
   fill="none"
   version="1.1"
   id="svg26"
   sodipodi:docname="Written-By-Human-Not-By-AI-Badge-black.svg"
   inkscape:export-filename="../repos/not-by-ai-alternative/not-by-ai-alternative--light.svg"
   inkscape:export-xdpi="96"
   inkscape:export-ydpi="96"
   inkscape:version="1.4 (e7c3feb100, 2024-10-09)"
   xmlns:inkscape="http://www.inkscape.org/namespaces/inkscape"
   xmlns:sodipodi="http://sodipodi.sourceforge.net/DTD/sodipodi-0.dtd"
   xmlns="http://www.w3.org/2000/svg"
   xmlns:svg="http://www.w3.org/2000/svg">
  <defs
     id="defs26" />
  <sodipodi:namedview
     id="namedview26"
     pagecolor="#ffffff"
     bordercolor="#000000"
     borderopacity="0.25"
     inkscape:showpageshadow="2"
     inkscape:pageopacity="0.0"
     inkscape:pagecheckerboard="0"
     inkscape:deskcolor="#d1d1d1"
     inkscape:zoom="7.1835004"
     inkscape:cx="79.905335"
     inkscape:cy="36.611678"
     inkscape:window-width="2220"
     inkscape:window-height="1222"
     inkscape:window-x="823"
     inkscape:window-y="1504"
     inkscape:window-maximized="0"
     inkscape:current-layer="svg26">
    <inkscape:page
       x="0"
       y="0"
       width="131"
       height="42"
       id="page2"
       margin="0"
       bleed="0" />
  </sodipodi:namedview>
  <g
     id="g10"
     transform="translate(-0.1538583,0.18250477)">
    <rect
       style="fill:#000000;fill-opacity:1;stroke:#ffffff;stroke-width:1.542;stroke-linecap:square;stroke-dasharray:none;stroke-opacity:1"
       id="rect5"
       width="129.76572"
       height="40.823009"
       x="0.77100003"
       y="0.40599048" />
    <g
       id="g8"
       transform="translate(1.382859,-54.293796)">
      <path
         d="m 13.654158,62.673647 h -0.665366 v -1.330731 h 0.665366 z m 4.001309,0 h -0.669923 v -1.330731 h 0.669923 z m 3.996752,0 h -0.665366 v -1.330731 h 0.665366 z m -7.332695,2.000655 h -0.665366 v -2.000655 h 0.665366 z m 2.66602,0 h -0.665366 v -2.000655 h 0.665366 z m 1.335289,0 h -0.665366 v -2.000655 h 0.665366 z m 2.66602,0 h -0.665365 v -2.000655 h 0.665365 z m -6.001964,2.000655 h -0.665365 v -2.000655 h 0.665365 z m 1.335289,0 h -0.665366 v -2.000655 h 0.665366 z m 2.666021,0 h -0.665366 v -2.000655 h 0.665366 z m 1.335289,0 h -0.669924 v -2.000655 h 0.669924 z m -4.666676,1.330731 h -0.669923 v -1.330731 h 0.669923 z m 3.996752,0 h -0.665365 v -1.330731 h 0.665365 z m 3.664069,0 h -0.665366 v -6.662772 h 0.665366 v 1.330731 h 0.665366 v 0.665366 h -0.665366 z m 2.666021,-5.997406 h -1.335289 v -0.665366 h 1.335289 z m -1.335289,0.665365 h -0.665366 v -0.665365 h 0.665366 z m 2.998704,-2.333337 h -0.665366 v -1.330732 h 0.665366 z m 0,7.665378 h -0.665366 v -6.662772 h 0.665366 z m 2.661462,-0.665365 h -0.665366 v -5.332041 h -0.998048 v -0.665366 h 0.998048 v -2.000655 h 0.665366 v 2.000655 h 1.667972 v 0.665366 h -1.667972 z m 1.667972,0.665365 h -1.667972 v -0.665365 h 1.667972 z M 33.9706,67.340323 h -0.665366 v -5.332041 h -0.998048 v -0.665366 h 0.998048 V 59.342261 H 33.9706 v 2.000655 h 1.667972 v 0.665366 H 33.9706 Z m 1.667972,0.665365 H 33.9706 v -0.665365 h 1.667972 z m 4.662119,-5.997406 H 37.63467 v -0.665366 h 2.666021 z m -2.666021,0.665365 h -0.665366 v -0.665365 h 0.665366 z m 3.335944,0 h -0.669923 v -0.665365 h 0.669923 z m -4.00131,4.00131 h -0.665365 v -4.00131 h 0.665365 v 1.335289 h 4.00131 v -1.335289 h 0.665366 v 2.000655 h -4.666676 z m 4.666676,0 h -0.665366 v -1.002606 h 0.665366 z m -4.00131,0.665366 h -0.665366 v -0.665366 h 0.665366 z m 3.335944,0 h -0.669923 v -0.665366 h 0.669923 z m -0.669923,0.665365 H 37.63467 v -0.665365 h 2.666021 z m 3.331385,0 H 42.96671 v -6.662772 h 0.665366 v 1.330731 h 0.665366 v 0.665366 h -0.665366 z m 3.331386,-5.997406 h -2.000655 v -0.665366 h 2.000655 z m -2.000655,0.665365 h -0.665365 v -0.665365 h 0.665365 z m 2.670578,0 h -0.669923 v -0.665365 h 0.669923 z m 0.665366,5.332041 h -0.665366 v -5.332041 h 0.665366 z m 5.322928,0 h -0.665366 v -9.33335 h 0.665366 v 4.001309 h 0.665366 v 0.665366 h -0.665366 v 2.670578 h 0.665366 v 0.665366 h -0.665366 z m 3.331386,-5.997406 H 54.95241 v -0.665366 h 2.000655 z m -2.000655,0.665365 h -0.665365 v -0.665365 h 0.665365 z m 2.670578,0 h -0.669923 v -0.665365 h 0.669923 z m 0.665366,4.00131 h -0.665366 v -4.00131 h 0.665366 z m -3.335944,0.665366 h -0.665365 v -0.665366 h 0.665365 z m 2.670578,0 h -0.669923 v -0.665366 h 0.669923 z m -0.669923,0.665365 H 54.95241 v -0.665365 h 2.000655 z m 2.66602,-5.332041 H 58.95372 v -1.330731 h 0.665365 z m 5.332041,0 h -0.665365 v -1.330731 h 0.665365 z m -4.666675,1.335289 h -0.665366 v -1.335289 h 0.665366 z m 4.00131,0 h -0.665366 v -1.335289 h 0.665366 z m -3.335944,1.330732 h -0.665366 v -1.330732 h 0.665366 z m 2.670578,0 h -0.669923 v -1.330732 h 0.669923 z m -2.000655,1.335289 h -0.669923 v -1.335289 h 0.669923 z m 1.330732,0 h -0.665366 v -1.335289 h 0.665366 z m -0.665366,1.330731 H 61.61974 v -1.330731 h 0.665366 z M 61.61974,69.33642 h -0.669923 v -1.330732 h 0.669923 z m -0.669923,0.665366 H 60.284451 V 69.33642 h 0.665366 z m -0.665366,0.669923 H 58.95372 v -0.669923 h 1.330731 z m 12.988305,-8.663427 h -2.666021 v -0.665366 h 2.666021 z m -2.666021,0.665365 h -0.665366 v -0.665365 h 0.665366 z m 3.335944,0 h -0.669923 v -0.665365 h 0.669923 z m -4.00131,0.665366 h -0.665365 v -0.665366 h 0.665365 z m 4.666676,4.00131 h -0.665366 v -0.665366 h -0.669923 v -0.665366 h 0.669923 v -2.000655 h -0.669923 v -0.669923 h 0.669923 v -0.665366 h 0.665366 z m -1.335289,-2.666021 h -2.666021 v -0.665366 h 2.666021 z m -2.666021,0.665366 h -0.665366 v -0.665366 h 0.665366 z m -0.665366,1.335289 h -0.665365 v -1.335289 h 0.665365 z m 0.665366,0.665366 h -0.665366 v -0.665366 h 0.665366 z m 2.666021,0 H 72.60739 v -0.665366 h 0.665366 z m -0.665366,0.665365 h -2.000655 v -0.665365 h 2.000655 z m 2.66602,0 h -0.665365 v -0.665365 h 0.665365 z m 4.99024,0 h -0.665365 v -9.33335 h 0.665365 v 4.001309 h 0.665366 v 0.665366 H 80.26365 Z m 3.331387,-5.997406 h -2.000655 v -0.665366 h 2.000655 z m -2.000655,0.665365 h -0.665366 v -0.665365 h 0.665366 z m 2.670578,0 h -0.669923 v -0.665365 h 0.669923 z m 0.665365,5.332041 H 84.26496 v -5.332041 h 0.665365 z m 1.996098,-1.330731 h -0.665365 v -5.332041 h 0.665365 z m 4.666676,1.330731 H 90.927733 V 66.674957 H 90.25781 v -0.665366 h 0.669923 v -4.666675 h 0.665366 z m -4.00131,-0.665365 h -0.665366 v -0.665366 h 0.665366 z m 2.666021,0 h -0.665366 v -0.665366 h 0.665366 z m -0.665366,0.665365 h -2.000655 v -0.665365 h 2.000655 z m 3.996753,0 h -0.665366 v -6.662772 h 0.665366 v 1.330731 h 0.665365 v 0.665366 h -0.665365 z m 2.66602,-5.997406 h -1.335289 v -0.665366 h 1.335289 z m 4.001313,0 h -2.000658 v -0.665366 h 2.000658 z m -5.336602,0.665365 h -0.665366 v -0.665365 h 0.665366 z m 2.000655,0 h -0.665366 v -0.665365 h 0.665366 z m 1.335289,0 h -0.665366 v -0.665365 h 0.665366 z m 2.666018,0 h -0.66536 v -0.665365 h 0.66536 z m -3.331384,5.332041 h -0.669923 v -5.332041 h 0.669923 z m 3.996754,0 h -0.66537 v -5.332041 h 0.66537 z m 5.32749,-5.997406 h -2.66602 v -0.665366 h 2.66602 z m -2.66602,0.665365 h -0.66537 v -0.665365 h 0.66537 z m 3.33594,0 h -0.66992 v -0.665365 h 0.66992 z m -4.00131,0.665366 h -0.66537 v -0.665366 h 0.66537 z m 4.66667,4.00131 h -0.66536 v -0.665366 h -0.66992 v -0.665366 h 0.66992 v -2.000655 h -0.66992 v -0.669923 h 0.66992 v -0.665366 h 0.66536 z m -1.33528,-2.666021 h -2.66602 v -0.665366 h 2.66602 z m -2.66602,0.665366 h -0.66537 v -0.665366 h 0.66537 z m -0.66537,1.335289 h -0.66537 v -1.335289 h 0.66537 z m 0.66537,0.665366 h -0.66537 v -0.665366 h 0.66537 z m 2.66602,0 h -0.66537 v -0.665366 h 0.66537 z m -0.66537,0.665365 h -2.00065 v -0.665365 h 2.00065 z m 2.66602,0 h -0.66537 v -0.665365 h 0.66537 z m 1.66341,0 h -0.66536 v -6.662772 h 0.66536 v 1.330731 h 0.66537 v 0.665366 h -0.66537 z m 3.33139,-5.997406 h -2.00066 v -0.665366 h 2.00066 z m -2.00066,0.665365 h -0.66536 v -0.665365 h 0.66536 z m 2.67058,0 h -0.66992 v -0.665365 h 0.66992 z m 0.66537,5.332041 h -0.66537 v -5.332041 h 0.66537 z"
         id="path5"
         style="font-size:18.6667px;font-family:NeueBit;-inkscape-font-specification:'NeueBit, Normal';fill:#f9f9f9;stroke-width:1.431;stroke-linecap:square"
         aria-label="written by a human" />
      <path
         d="M 20.20303,87.344941 H 19.062405 V 75.923066 h 1.140625 v 2.28125 h 1.140625 v 1.140625 H 20.20303 Z m 5.710937,-10.28125 H 22.48428 v -1.140625 h 3.429687 z m -3.429687,1.140625 h -1.140625 v -1.140625 h 1.140625 z m 4.578125,0 h -1.148438 v -1.140625 h 1.148438 z m 1.140625,9.140625 h -1.140625 v -9.140625 h 1.140625 z m 9.132812,-10.28125 H 32.76553 v -1.140625 h 4.570312 z m -4.570312,1.140625 h -1.140625 v -1.140625 h 1.140625 z m 5.71875,0 h -1.148438 v -1.140625 h 1.148438 z m -6.859375,6.859375 H 30.48428 v -6.859375 h 1.140625 z m 8,0 H 38.48428 v -6.859375 h 1.140625 z m -6.859375,1.140625 h -1.140625 v -1.140625 h 1.140625 z m 5.71875,0 h -1.148438 v -1.140625 h 1.148438 z m -1.148438,1.140625 H 32.76553 v -1.140625 h 4.570312 z m 6.28125,-1.140625 H 42.476467 V 77.063691 H 40.76553 v -1.140625 h 1.710937 v -3.429688 h 1.140625 v 3.429688 h 2.859375 v 1.140625 h -2.859375 z m 2.859375,1.140625 h -2.859375 v -1.140625 h 2.859375 z m 8.554688,0 H 53.89053 v -16 h 1.140625 v 6.859375 h 1.140625 v 1.140625 h -1.140625 v 4.578125 h 1.140625 v 1.140625 h -1.140625 z m 5.710937,-10.28125 h -3.429687 v -1.140625 h 3.429687 z m -3.429687,1.140625 H 56.17178 v -1.140625 h 1.140625 z m 4.578125,0 h -1.148438 v -1.140625 h 1.148438 z m 1.140625,6.859375 H 61.89053 v -6.859375 h 1.140625 z m -5.71875,1.140625 H 56.17178 v -1.140625 h 1.140625 z m 4.578125,0 h -1.148438 v -1.140625 h 1.148438 z m -1.148438,1.140625 h -3.429687 v -1.140625 h 3.429687 z m 4.570313,-9.140625 H 64.17178 v -2.28125 h 1.140625 z m 9.140625,0 h -1.140625 v -2.28125 h 1.140625 z m -8,2.289062 h -1.140625 v -2.289062 h 1.140625 z m 6.859375,0 H 72.17178 v -2.289062 h 1.140625 z m -5.71875,2.28125 H 66.45303 v -2.28125 h 1.140625 z m 4.578125,0 h -1.148438 v -2.28125 h 1.148438 z m -3.429688,2.289063 h -1.148437 v -2.289063 h 1.148437 z m 2.28125,0 h -1.140625 v -2.289063 h 1.140625 z m -1.140625,2.28125 h -1.140625 v -2.28125 h 1.140625 z m -1.140625,2.28125 h -1.148437 v -2.28125 h 1.148437 z m -1.148437,1.140625 H 66.45303 v -1.140625 h 1.140625 z m -1.140625,1.148437 h -2.28125 v -1.148437 h 2.28125 z M 83.007717,77.063691 h -1.140625 v -5.71875 h 1.140625 z m 2.28125,0 h -1.140625 v -5.71875 h 1.140625 z m 7.992188,-3.429688 h -2.28125 v -2.289062 h 2.28125 z m -2.28125,3.429688 h -1.148438 v -3.429688 h 1.148438 z m 3.429687,0 h -1.148437 v -3.429688 h 1.148437 z m -4.578125,3.429687 h -1.140625 v -3.429687 h 1.140625 z m 5.71875,0 h -1.140625 v -3.429687 h 1.140625 z m -6.859375,3.429688 h -1.140625 v -3.429688 h 1.140625 v 1.140625 h 6.859375 v -1.140625 h 1.140625 v 3.429688 h -1.140625 v -1.148438 h -6.859375 z m -1.140625,3.421875 h -1.140625 v -3.421875 h 1.140625 z m 10.28125,0 h -1.140625 v -3.421875 h 1.140625 z m 3.421873,0 h -1.14062 v -16 h 1.14062 z m 2.85156,-10.28125 h -1.14062 v -5.71875 h 1.14062 z m 2.28125,0 h -1.14062 v -5.71875 h 1.14062 z"
         id="path6"
         style="font-size:32px;font-family:NeueBit;-inkscape-font-specification:'NeueBit, Normal';fill:#f9f9f9;stroke-width:1.431;stroke-linecap:square"
         aria-label="not by &quot;AI&quot;" />
    </g>
  </g>
</svg>
