<?xml version="1.0" encoding="UTF-8" standalone="no"?>
<svg
   width="131"
   height="42"
   viewBox="0 0 131 42"
   fill="none"
   version="1.1"
   id="svg26"
   sodipodi:docname="Written-By-Human-Not-By-AI-Badge-black.svg"
   inkscape:export-filename="../repos/not-by-ai-alternative/not-by-ai-alternative--dark.svg"
   inkscape:export-xdpi="96"
   inkscape:export-ydpi="96"
   inkscape:version="1.4 (e7c3feb100, 2024-10-09)"
   xmlns:inkscape="http://www.inkscape.org/namespaces/inkscape"
   xmlns:sodipodi="http://sodipodi.sourceforge.net/DTD/sodipodi-0.dtd"
   xmlns="http://www.w3.org/2000/svg"
   xmlns:svg="http://www.w3.org/2000/svg">
  <defs
     id="defs26" />
  <sodipodi:namedview
     id="namedview26"
     pagecolor="#ffffff"
     bordercolor="#000000"
     borderopacity="0.25"
     inkscape:showpageshadow="2"
     inkscape:pageopacity="0.0"
     inkscape:pagecheckerboard="0"
     inkscape:deskcolor="#d1d1d1"
     inkscape:zoom="7.1835004"
     inkscape:cx="79.905335"
     inkscape:cy="36.611678"
     inkscape:window-width="2220"
     inkscape:window-height="1222"
     inkscape:window-x="823"
     inkscape:window-y="1504"
     inkscape:window-maximized="0"
     inkscape:current-layer="svg26">
    <inkscape:page
       x="0"
       y="0"
       width="131"
       height="42"
       id="page2"
       margin="0"
       bleed="0" />
  </sodipodi:namedview>
  <g
     id="g11"
     transform="translate(-0.61715698,0.58849525)">
    <rect
       style="fill:#ffffff;fill-opacity:1;stroke:#111111;stroke-width:1.542;stroke-linecap:square;stroke-dasharray:none;stroke-opacity:1"
       id="rect8"
       width="129.76572"
       height="40.823009"
       x="1.2342987"
       y="0" />
    <g
       id="g9"
       transform="translate(-125.28483,-56.729565)">
      <path
         d="m 141.536,65.081968 h -0.66537 v -1.330731 h 0.66537 z m 4.00131,0 h -0.66993 v -1.330731 h 0.66993 z m 3.99675,0 h -0.66537 v -1.330731 h 0.66537 z m -7.3327,2.000655 H 141.536 v -2.000655 h 0.66536 z m 2.66602,0 h -0.66536 v -2.000655 h 0.66536 z m 1.33529,0 h -0.66536 v -2.000655 h 0.66536 z m 2.66602,0 h -0.66536 v -2.000655 h 0.66536 z m -6.00196,2.000655 h -0.66537 v -2.000655 h 0.66537 z m 1.33529,0 h -0.66537 v -2.000655 h 0.66537 z m 2.66602,0 h -0.66537 v -2.000655 h 0.66537 z m 1.33529,0 h -0.66993 v -2.000655 h 0.66993 z m -4.66668,1.330731 h -0.66992 v -1.330731 h 0.66992 z m 3.99675,0 h -0.66536 v -1.330731 h 0.66536 z m 3.66407,0 h -0.66536 v -6.662772 h 0.66536 v 1.330731 h 0.66537 v 0.665366 h -0.66537 z m 2.66602,-5.997406 h -1.33528 v -0.665366 h 1.33528 z m -1.33528,0.665365 h -0.66537 v -0.665365 h 0.66537 z m 2.9987,-2.333337 h -0.66537 v -1.330732 h 0.66537 z m 0,7.665378 h -0.66537 v -6.662772 h 0.66537 z m 2.66146,-0.665365 h -0.66536 v -5.332041 h -0.99805 v -0.665366 h 0.99805 v -2.000655 h 0.66536 v 2.000655 h 1.66797 v 0.665366 h -1.66797 z m 1.66797,0.665365 h -1.66797 v -0.665365 h 1.66797 z m 1.9961,-0.665365 h -0.66537 v -5.332041 h -0.99804 v -0.665366 h 0.99804 v -2.000655 h 0.66537 v 2.000655 h 1.66797 v 0.665366 h -1.66797 z m 1.66797,0.665365 h -1.66797 v -0.665365 h 1.66797 z m 4.66212,-5.997406 h -2.66602 v -0.665366 h 2.66602 z m -2.66602,0.665365 h -0.66537 v -0.665365 h 0.66537 z m 3.33594,0 h -0.66992 v -0.665365 h 0.66992 z m -4.00131,4.00131 h -0.66536 v -4.00131 h 0.66536 v 1.335289 h 4.00131 v -1.335289 h 0.66537 v 2.000655 h -4.66668 z m 4.66668,0 h -0.66537 v -1.002606 h 0.66537 z m -4.00131,0.665366 h -0.66537 v -0.665366 h 0.66537 z m 3.33594,0 h -0.66992 v -0.665366 h 0.66992 z m -0.66992,0.665365 h -2.66602 v -0.665365 h 2.66602 z m 3.33139,0 h -0.66537 v -6.662772 h 0.66537 v 1.330731 h 0.66536 v 0.665366 h -0.66536 z m 3.33138,-5.997406 h -2.00065 v -0.665366 h 2.00065 z m -2.00065,0.665365 h -0.66537 v -0.665365 h 0.66537 z m 2.67058,0 h -0.66993 v -0.665365 h 0.66993 z m 0.66536,5.332041 h -0.66536 v -5.332041 h 0.66536 z m 5.32293,0 h -0.66537 v -9.33335 h 0.66537 v 4.001309 h 0.66537 v 0.665366 h -0.66537 v 2.670578 h 0.66537 v 0.665366 h -0.66537 z m 3.33139,-5.997406 h -2.00066 v -0.665366 h 2.00066 z m -2.00066,0.665365 h -0.66536 v -0.665365 h 0.66536 z m 2.67058,0 h -0.66992 v -0.665365 h 0.66992 z m 0.66536,4.00131 h -0.66536 v -4.00131 h 0.66536 z m -3.33594,0.665366 h -0.66536 v -0.665366 h 0.66536 z m 2.67058,0 h -0.66992 v -0.665366 h 0.66992 z m -0.66992,0.665365 h -2.00066 v -0.665365 h 2.00066 z m 2.66602,-5.332041 h -0.66537 v -1.330731 h 0.66537 z m 5.33204,0 h -0.66537 v -1.330731 h 0.66537 z m -4.66668,1.335289 h -0.66536 v -1.335289 h 0.66536 z m 4.00131,0 h -0.66536 v -1.335289 h 0.66536 z m -3.33594,1.330732 h -0.66537 v -1.330732 h 0.66537 z m 2.67058,0 h -0.66993 v -1.330732 h 0.66993 z m -2.00066,1.335289 h -0.66992 v -1.335289 h 0.66992 z m 1.33073,0 h -0.66536 v -1.335289 h 0.66536 z m -0.66536,1.330731 h -0.66537 v -1.330731 h 0.66537 z m -0.66537,1.330732 h -0.66992 v -1.330732 h 0.66992 z m -0.66992,0.665366 h -0.66537 v -0.665366 h 0.66537 z m -0.66537,0.669923 h -1.33073 v -0.669923 h 1.33073 z m 12.98831,-8.663427 h -2.66602 v -0.665366 h 2.66602 z m -2.66602,0.665365 h -0.66537 v -0.665365 h 0.66537 z m 3.33594,0 h -0.66992 v -0.665365 h 0.66992 z m -4.00131,0.665366 h -0.66537 v -0.665366 h 0.66537 z m 4.66668,4.00131 h -0.66537 v -0.665366 h -0.66992 v -0.665366 h 0.66992 v -2.000655 h -0.66992 v -0.669923 h 0.66992 v -0.665366 h 0.66537 z m -1.33529,-2.666021 h -2.66602 v -0.665366 h 2.66602 z m -2.66602,0.665366 h -0.66537 v -0.665366 h 0.66537 z m -0.66537,1.335289 h -0.66537 v -1.335289 h 0.66537 z m 0.66537,0.665366 h -0.66537 v -0.665366 h 0.66537 z m 2.66602,0 h -0.66537 v -0.665366 h 0.66537 z m -0.66537,0.665365 h -2.00065 v -0.665365 h 2.00065 z m 2.66602,0 h -0.66536 v -0.665365 h 0.66536 z m 4.99024,0 h -0.66536 v -9.33335 h 0.66536 v 4.001309 h 0.66537 v 0.665366 h -0.66537 z m 3.33139,-5.997406 h -2.00066 v -0.665366 h 2.00066 z m -2.00066,0.665365 h -0.66536 v -0.665365 h 0.66536 z m 2.67058,0 h -0.66992 v -0.665365 h 0.66992 z m 0.66537,5.332041 h -0.66537 v -5.332041 h 0.66537 z m 1.99609,-1.330731 h -0.66536 v -5.332041 h 0.66536 z m 4.66668,1.330731 h -0.66537 v -1.330731 h -0.66992 v -0.665366 h 0.66992 v -4.666675 h 0.66537 z m -4.00131,-0.665365 h -0.66537 v -0.665366 h 0.66537 z m 2.66602,0 h -0.66537 v -0.665366 h 0.66537 z m -0.66537,0.665365 h -2.00065 v -0.665365 h 2.00065 z m 3.99676,0 h -0.66537 v -6.662772 h 0.66537 v 1.330731 h 0.66536 v 0.665366 h -0.66536 z m 2.66602,-5.997406 h -1.33529 v -0.665366 h 1.33529 z m 4.00131,0 h -2.00066 v -0.665366 h 2.00066 z m -5.3366,0.665365 h -0.66537 v -0.665365 h 0.66537 z m 2.00065,0 h -0.66536 v -0.665365 h 0.66536 z m 1.33529,0 h -0.66536 v -0.665365 h 0.66536 z m 2.66602,0 h -0.66536 v -0.665365 h 0.66536 z m -3.33138,5.332041 h -0.66993 v -5.332041 h 0.66993 z m 3.99675,0 h -0.66537 v -5.332041 h 0.66537 z m 5.32749,-5.997406 h -2.66602 v -0.665366 h 2.66602 z m -2.66602,0.665365 h -0.66537 v -0.665365 h 0.66537 z m 3.33594,0 h -0.66992 v -0.665365 h 0.66992 z m -4.00131,0.665366 h -0.66537 v -0.665366 h 0.66537 z m 4.66667,4.00131 h -0.66536 v -0.665366 h -0.66992 v -0.665366 h 0.66992 v -2.000655 h -0.66992 v -0.669923 h 0.66992 v -0.665366 h 0.66536 z m -1.33528,-2.666021 h -2.66602 v -0.665366 h 2.66602 z m -2.66602,0.665366 h -0.66537 v -0.665366 h 0.66537 z m -0.66537,1.335289 h -0.66537 v -1.335289 h 0.66537 z m 0.66537,0.665366 h -0.66537 v -0.665366 h 0.66537 z m 2.66602,0 h -0.66537 v -0.665366 h 0.66537 z m -0.66537,0.665365 h -2.00065 v -0.665365 h 2.00065 z m 2.66602,0 h -0.66537 v -0.665365 h 0.66537 z m 1.66341,0 h -0.66536 v -6.662772 h 0.66536 v 1.330731 h 0.66537 v 0.665366 h -0.66537 z m 3.33139,-5.997406 h -2.00066 v -0.665366 h 2.00066 z m -2.00066,0.665365 h -0.66536 v -0.665365 h 0.66536 z m 2.67058,0 h -0.66992 v -0.665365 h 0.66992 z m 0.66537,5.332041 h -0.66537 v -5.332041 h 0.66537 z"
         id="path7"
         style="font-size:18.6667px;font-family:NeueBit;-inkscape-font-specification:'NeueBit, Normal';fill:#000000;stroke-width:1.431;stroke-linecap:square"
         aria-label="written by a human" />
      <path
         d="m 148.08487,89.753262 h -1.14062 V 78.331387 h 1.14062 v 2.28125 h 1.14063 v 1.140625 h -1.14063 z m 5.71094,-10.28125 h -3.42969 v -1.140625 h 3.42969 z m -3.42969,1.140625 h -1.14062 v -1.140625 h 1.14062 z m 4.57813,0 h -1.14844 v -1.140625 h 1.14844 z m 1.14062,9.140625 h -1.14062 v -9.140625 h 1.14062 z m 9.13281,-10.28125 h -4.57031 v -1.140625 h 4.57031 z m -4.57031,1.140625 h -1.14062 v -1.140625 h 1.14062 z m 5.71875,0 h -1.14844 v -1.140625 h 1.14844 z m -6.85937,6.859375 h -1.14063 v -6.859375 h 1.14063 z m 8,0 h -1.14063 v -6.859375 h 1.14063 z m -6.85938,1.140625 h -1.14062 v -1.140625 h 1.14062 z m 5.71875,0 h -1.14844 v -1.140625 h 1.14844 z m -1.14844,1.140625 h -4.57031 v -1.140625 h 4.57031 z m 6.28125,-1.140625 h -1.14062 v -9.140625 h -1.71094 v -1.140625 h 1.71094 v -3.429688 h 1.14062 v 3.429688 h 2.85938 v 1.140625 h -2.85938 z m 2.85938,1.140625 h -2.85938 v -1.140625 h 2.85938 z m 8.55469,0 h -1.14063 v -16 h 1.14063 v 6.859375 h 1.14062 v 1.140625 H 182.913 v 4.578125 h 1.14062 v 1.140625 H 182.913 Z m 5.71093,-10.28125 h -3.42968 v -1.140625 h 3.42968 z m -3.42968,1.140625 h -1.14063 v -1.140625 h 1.14063 z m 4.57812,0 h -1.14844 v -1.140625 h 1.14844 z m 1.14063,6.859375 h -1.14063 v -6.859375 h 1.14063 z m -5.71875,1.140625 h -1.14063 v -1.140625 h 1.14063 z m 4.57812,0 h -1.14844 v -1.140625 h 1.14844 z m -1.14844,1.140625 h -3.42968 v -1.140625 h 3.42968 z m 4.57032,-9.140625 h -1.14063 v -2.28125 h 1.14063 z m 9.14062,0 h -1.14062 v -2.28125 h 1.14062 z m -8,2.289062 h -1.14062 v -2.289062 h 1.14062 z m 6.85938,0 h -1.14063 v -2.289062 h 1.14063 z m -5.71875,2.28125 h -1.14063 v -2.28125 h 1.14063 z m 4.57812,0 h -1.14844 v -2.28125 h 1.14844 z m -3.42969,2.289063 h -1.14843 v -2.289063 h 1.14843 z m 2.28125,0 h -1.14062 v -2.289063 h 1.14062 z m -1.14062,2.28125 h -1.14063 v -2.28125 h 1.14063 z m -1.14063,2.28125 h -1.14843 v -2.28125 h 1.14843 z m -1.14843,1.140625 h -1.14063 v -1.140625 h 1.14063 z m -1.14063,1.148437 h -2.28125 v -1.148437 h 2.28125 z m 16.55469,-14.851562 h -1.14063 v -5.71875 h 1.14063 z m 2.28125,0 h -1.14063 v -5.71875 h 1.14063 z m 7.99219,-3.429688 h -2.28125 v -2.289062 h 2.28125 z m -2.28125,3.429688 h -1.14844 v -3.429688 h 1.14844 z m 3.42968,0 H 221.163 v -3.429688 h 1.14843 z m -4.57812,3.429687 h -1.14063 v -3.429687 h 1.14063 z m 5.71875,0 h -1.14063 v -3.429687 h 1.14063 z m -6.85938,3.429688 h -1.14062 v -3.429688 h 1.14062 v 1.140625 h 6.85938 v -1.140625 h 1.14062 v 3.429688 h -1.14062 v -1.148438 h -6.85938 z m -1.14062,3.421875 h -1.14063 v -3.421875 h 1.14063 z m 10.28125,0 h -1.14063 v -3.421875 h 1.14063 z m 3.42187,0 h -1.14062 v -16 h 1.14062 z m 2.85156,-10.28125 h -1.14062 v -5.71875 h 1.14062 z m 2.28125,0 h -1.14062 v -5.71875 h 1.14062 z"
         id="path8"
         style="font-size:32px;font-family:NeueBit;-inkscape-font-specification:'NeueBit, Normal';fill:#000000;stroke-width:1.431;stroke-linecap:square"
         aria-label="not by &quot;AI&quot;" />
    </g>
  </g>
</svg>
